<?xml version="1.0" encoding="utf-8"?>
<!-- Generator: Adobe Illustrator 22.1.0, SVG Export Plug-In . SVG Version: 6.00 Build 0)  -->
<svg version="1.1" id="Layer_1" xmlns="http://www.w3.org/2000/svg" xmlns:xlink="http://www.w3.org/1999/xlink" x="0px"
	y="0px" viewBox="0 0 800 500" style="enable-background:new 0 0 800 500;" xml:space="preserve">
	<style type="text/css">
		.st0 {
			fill: #282828;


		}

		.test path {
			stroke: black;
			stroke-width: 0px;
			stroke-dasharray: 900;
			stroke-dashoffset: 900;
			animation: test 3s linear infinite;
		}

		@keyframes test {
			0% {
				stroke-width: 5px;
				fill: white;
				stroke-dashoffset: 900;
			}

			to {
				fill: black;
				stroke-width: 0;
				stroke-dashoffset: 0;
			}
		}
	</style>

	<g class="test">
		<g>
			<g>
				<g>
					<path fill="#000000" class="st0"
						d="M84.1,346.2h-2.2v-25.4H90c1.6,0,2.9,0.2,4,0.6c1.1,0.4,2,0.9,2.7,1.5s1.2,1.4,1.5,2.3
					c0.3,0.9,0.5,1.8,0.5,2.7c0,0.7-0.1,1.4-0.3,2.2c-0.2,0.7-0.5,1.4-1,2.1c-0.5,0.6-1.1,1.2-2,1.7c-0.8,0.5-1.7,0.8-2.6,1
					l7.2,11.4h-2.6l-7.1-11H90h-0.8h-5.2V346.2z M84.1,333h5.5c1.1,0,2.1-0.1,3-0.3c0.9-0.2,1.6-0.5,2.2-0.9c0.6-0.4,1-0.9,1.3-1.6
					c0.3-0.6,0.5-1.4,0.5-2.4c0-0.7-0.1-1.4-0.4-2c-0.2-0.6-0.6-1.1-1.2-1.5c-0.5-0.4-1.2-0.7-2.1-1s-2-0.3-3.2-0.3h-5.5V333z" />
					<path fill="#000000" class="st0" d="M144.1,346.2l-3.2-8h-11.2l-3.2,8H124l10.2-25.4h2.1l10.2,25.4H144.1z M140,335.9l-4.7-11.6l-4.7,11.6H140z
					" />
					<path fill="#000000" class="st0"
						d="M175.3,324.5v21.7h-2.2v-25.4h3.1l9.2,22.3l9.2-22.3h3.1v25.4h-2.2v-21.7l-9.1,21.7h-2.1L175.3,324.5z" />
					<path fill="#000000" class="st0" d="M244.1,346.2l-3.2-8h-11.2l-3.2,8h-2.4l10.2-25.4h2.1l10.2,25.4H244.1z M240,335.9l-4.7-11.6l-4.7,11.6H240
					z" />
					<path fill="#000000" class="st0" d="M278.9,320.8c2,0,3.9,0.3,5.7,0.8c1.7,0.5,3.2,1.3,4.5,2.4c1.3,1.1,2.3,2.4,3,4c0.7,1.6,1.1,3.4,1.1,5.5
					c0,2.1-0.4,3.9-1.1,5.5c-0.7,1.6-1.7,2.9-3,4c-1.3,1.1-2.8,1.9-4.5,2.4c-1.7,0.5-3.6,0.8-5.7,0.8h-5.7v-25.4H278.9z M284,343.3
					c1.5-0.5,2.7-1.2,3.7-2.1c1-0.9,1.8-2,2.3-3.3s0.8-2.7,0.8-4.4c0-1.6-0.3-3.1-0.9-4.4s-1.4-2.4-2.5-3.3
					c-1.1-0.9-2.3-1.6-3.8-2.1s-3.1-0.7-4.8-0.7h-3.5V344h3.5C280.8,344,282.5,343.8,284,343.3z" />
					<path fill="#000000" class="st0" d="M336.7,346.2l-3.2-8h-11.2l-3.2,8h-2.4l10.2-25.4h2.1l10.2,25.4H336.7z M332.6,335.9l-4.7-11.6l-4.7,11.6
					H332.6z" />
					<path fill="#000000" class="st0"
						d="M368,346.2h-2.3v-25.4h3l13.8,22.3v-22.3h2.3v25.4h-3L368,323.9V346.2z" />
					<path fill="#000000" class="st0"
						d="M443.3,324.5v21.7h-2.2v-25.4h3.1l9.2,22.3l9.2-22.3h3.1v25.4h-2.2v-21.7l-9.1,21.7h-2.1L443.3,324.5z" />
					<path fill="#000000" class="st0" d="M500.8,345.6c-1.3-0.5-2.4-1.3-3.2-2.2s-1.4-2-1.7-3.3c-0.3-1.2-0.5-2.5-0.5-3.9v-15.5h2.2v15.2
					c0,2.8,0.6,4.9,1.9,6.3c1.3,1.4,3.4,2.1,6.2,2.1c2.8,0,4.9-0.7,6.2-2.1c1.3-1.4,1.9-3.5,1.9-6.3v-15.2h2.2v15.5
					c0,1.4-0.2,2.6-0.5,3.9c-0.3,1.2-0.9,2.3-1.7,3.3c-0.8,0.9-1.9,1.7-3.2,2.2c-1.3,0.5-3,0.8-4.9,0.8
					C503.8,346.5,502.1,346.2,500.8,345.6z" />
					<path fill="#000000" class="st0"
						d="M561.7,328.9c-0.2,0.6-0.4,1.1-0.7,1.7c-0.3,0.5-0.8,1-1.3,1.5c-0.5,0.4-0.8,0.6-0.7,0.6
					c0.2,0,0.6,0.3,1.3,0.8c0.7,0.5,1.3,1,1.8,1.6c0.5,0.6,0.8,1.3,1,2c0.2,0.7,0.3,1.4,0.3,2.1c0,1.3-0.2,2.3-0.7,3.2
					c-0.5,0.9-1.1,1.6-1.9,2.2c-0.8,0.6-1.7,1-2.8,1.2c-1.1,0.3-2.2,0.4-3.4,0.4h-8.9v-25.4h7.5c1.5,0,2.8,0.2,3.9,0.5
					c1.1,0.3,2,0.8,2.7,1.3c0.7,0.6,1.3,1.3,1.6,2c0.3,0.8,0.5,1.6,0.5,2.5C561.9,327.7,561.8,328.3,561.7,328.9z M559.2,325.7
					c-0.2-0.5-0.6-1-1.1-1.4c-0.5-0.4-1.1-0.7-1.9-1c-0.8-0.3-1.7-0.4-2.8-0.4h-5.5v8.9h5.5c2.1,0,3.6-0.4,4.6-1.2
					c1-0.8,1.5-1.9,1.5-3.4C559.5,326.7,559.4,326.2,559.2,325.7z M560.4,336.6c-0.4-0.7-0.9-1.2-1.5-1.6c-0.6-0.4-1.4-0.7-2.2-0.8
					c-0.8-0.2-1.7-0.2-2.7-0.2h-6.2v10h6.6c2.2,0,3.9-0.4,5-1.3c1.1-0.9,1.6-2.1,1.6-3.5C561,338.1,560.8,337.3,560.4,336.6z" />
					<path fill="#000000" class="st0" d="M607.8,346.2l-3.2-8h-11.2l-3.2,8h-2.4l10.2-25.4h2.1l10.2,25.4H607.8z M603.7,335.9l-4.7-11.6l-4.7,11.6
					H603.7z" />
					<path fill="#000000" class="st0" d="M639.1,346.2h-2.2v-25.4h8.2c1.6,0,2.9,0.2,4,0.6c1.1,0.4,2,0.9,2.7,1.5s1.2,1.4,1.5,2.3
					c0.3,0.9,0.5,1.8,0.5,2.7c0,0.7-0.1,1.4-0.3,2.2c-0.2,0.7-0.5,1.4-1,2.1c-0.5,0.6-1.1,1.2-2,1.7c-0.8,0.5-1.7,0.8-2.6,1
					l7.2,11.4h-2.6l-7.1-11h-0.5h-0.8h-5.2V346.2z M639.1,333h5.5c1.1,0,2.1-0.1,3-0.3c0.9-0.2,1.6-0.5,2.2-0.9
					c0.6-0.4,1-0.9,1.3-1.6c0.3-0.6,0.5-1.4,0.5-2.4c0-0.7-0.1-1.4-0.4-2c-0.2-0.6-0.6-1.1-1.2-1.5c-0.5-0.4-1.2-0.7-2.1-1
					c-0.9-0.2-2-0.3-3.2-0.3h-5.5V333z" />
					<path fill="#000000" class="st0" d="M699.1,346.2l-3.2-8h-11.2l-3.2,8h-2.4l10.2-25.4h2.1l10.2,25.4H699.1z M695,335.9l-4.7-11.6l-4.7,11.6H695
					z" />
					<path fill="#000000" class="st0"
						d="M728.1,320.8h2.2v11.7l11.5-11.7h3l-12.4,12.7l13.6,12.7h-3.2l-12.5-11.7v11.7h-2.2V320.8z" />
				</g>
				<g>
					<g>
						<path fill="#000000" class="st0" d="M739.5,214.6c-3.6,0-6.6,3-6.6,6.6v27.4c0,11.5-9.3,20.8-20.8,20.8c-3.6,0-6.6,3-6.6,6.6s3,6.6,6.6,6.6
						c18.8,0,34-15.3,34-34v-27.4C746.1,217.5,743.2,214.6,739.5,214.6z" />
						<path fill="#000000" class="st0"
							d="M581.1,214.6c-7.9,0-15.2,2.7-21,7.3c-0.6-3-3.3-5.3-6.5-5.3c-3.6,0-6.6,3-6.6,6.6v25.5v20.8h-20.8
						c-11.5,0-20.8-9.3-20.8-20.8v-62.5c0-3.6-3-6.6-6.6-6.6s-6.6,3-6.6,6.6v62.5c0,18.8,15.3,34,34,34h27.4h26.1h1.4h40.1
						c11.3,0,21.2-5.5,27.4-13.9c6.2,8.4,16.2,13.9,27.4,13.9c18.8,0,34-15.3,34-34s-15.3-34-34-34c-18.8,0-34,15.3-34,34
						c0,11.5-9.3,20.8-20.8,20.8H608c4.5-5.8,7.2-13,7.2-20.8C615.2,229.9,599.9,214.6,581.1,214.6z M676.1,227.8
						c11.5,0,20.8,9.3,20.8,20.8c0,11.5-9.3,20.8-20.8,20.8c-11.5,0-20.8-9.3-20.8-20.8C655.3,237.1,664.7,227.8,676.1,227.8z
						 M579.8,269.5h-19.5v-20.8c0-11.5,9.3-20.8,20.8-20.8c11.5,0,20.8,9.3,20.8,20.8c0,11.5-9.3,20.8-20.8,20.8H579.8z" />
						<path fill="#000000" class="st0" d="M426.1,220.7c-3.6,0-6.6,3-6.6,6.6v21.3c0,18.8,15.3,34,34,34c18.8,0,34-15.3,34-34v-21.3
						c0-3.6-3-6.6-6.6-6.6s-6.6,3-6.6,6.6v21.3c0,11.5-9.3,20.8-20.8,20.8c-11.5,0-20.8-9.3-20.8-20.8v-21.3
						C432.7,223.7,429.7,220.7,426.1,220.7z" />
						<path fill="#000000" class="st0"
							d="M460.2,227.5c0-3.7-3-6.6-6.6-6.6s-6.6,3-6.6,6.6s3,6.6,6.6,6.6S460.2,231.1,460.2,227.5z" />

						<ellipse transform="matrix(0.9975 -7.088848e-02 7.088848e-02 0.9975 -13.211 40.4669)"
							class="st0" cx="563.5" cy="206.4" rx="6.6" ry="6.6" />
					</g>
					<g>
						<path fill="#000000" class="st0" d="M374.3,214.3c-18.8,0-34.2,15.3-34.2,34.2c0,11.6-9.4,21-21,21h-20.9l0-8.6v-40c0-3.6-3-6.6-6.6-6.6
						s-6.6,3-6.6,6.6v1c-0.1,0.4-0.1,0.8-0.1,1.2l0.1,37.6v8.7h-20.9c-11.6,0-21-9.4-21-21l0.1-62.4c0-3.6-2.9-6.6-6.6-6.6
						c0,0,0,0,0,0c-3.6,0-6.6,2.9-6.6,6.6l-0.1,62.4c0,18.8,15.3,34.2,34.2,34.2h27.5h0h27.5c11.3,0,21.3-5.5,27.6-14
						c6.2,8.5,16.3,14,27.6,14c18.8,0,34.2-15.3,34.2-34.2S393.1,214.3,374.3,214.3z M374.3,269.4c-11.6,0-21-9.4-21-21
						c0-11.6,9.4-21,21-21c11.6,0,21,9.4,21,21C395.3,260,385.8,269.4,374.3,269.4z" />
						<path fill="#000000" class="st0" d="M278.2,286.4c-3.6,0-6.4,2.9-6.4,6.4c0,3.6,2.9,6.4,6.4,6.4s6.4-2.9,6.4-6.4
						C284.7,289.3,281.8,286.4,278.2,286.4z" />
						<path fill="#000000" class="st0" d="M219.2,214.3c-3.6,0-6.6,3-6.6,6.6v27.6c0,11.6-9.4,21-21,21c-3.6,0-6.6,3-6.6,6.6s3,6.6,6.6,6.6
						c18.8,0,34.2-15.3,34.2-34.2v-27.6C225.7,217.2,222.8,214.3,219.2,214.3z" />
						<path fill="#000000" class="st0" d="M164.7,240.8h-3.5H138h-21.5c-4.2,0-7.7-3.5-7.7-7.7c0-4.2,3.5-7.7,7.7-7.7h44.9c3.6,0,6.6-3,6.6-6.6
						c0-3.6-3-6.6-6.6-6.6h-44.9c-11.5,0-20.9,9.4-20.9,20.9s9.4,20.9,20.9,20.9H138h23.2h3.5c4.2,0,7.7,3.5,7.7,7.7
						c0,4.2-3.5,7.7-7.7,7.7H88.4c-3.6,0-6.6,3-6.6,6.6s3,6.6,6.6,6.6h76.3c11.5,0,20.9-9.4,20.9-20.9
						C185.6,250.2,176.2,240.8,164.7,240.8z" />
					</g>
				</g>
			</g>
		</g>
		<g>
			<path fill="#000000" class="st0" d="M614.6,374.4l-122.4,1.2l-61.2,0.6l-3.8,0l-1.9,0c-0.6,0-1.4,0-1.7,0c-1.7,0.2-3.2,1.5-3.6,3.1
			c-0.1,0.4-0.1,0.8-0.2,1.3l0,1.9l0,3.8l0,1.9l0,0.5l0,0.3c0,0.2,0.1,0.4,0.1,0.6c0.2,0.8,0.6,1.5,1.2,2.1c0.6,0.5,1.4,0.9,2.1,1
			c0.2,0,0.4,0,0.6,0l0.9,0l1.9,0l0.9,0c0.2,0,0.4,0,0.6-0.1c0.4-0.1,0.8-0.2,1.1-0.4c0.7-0.3,1.3-0.9,1.7-1.6
			c0.8-1.4,0.6-3.2-0.4-4.3c-0.2-0.3-0.5-0.5-0.8-0.8c-0.3-0.2-0.7-0.4-1-0.5c-0.4-0.1-0.7-0.1-1.1-0.1l-1.9,0v-5.3l1.9,0
			c0.9,0,1.8,0.1,2.6,0.4c0.9,0.3,1.7,0.7,2.4,1.2c0.7,0.5,1.4,1.1,2,1.8c1.1,1.4,1.8,3.1,1.9,4.9c0.1,1.8-0.3,3.6-1.2,5.1
			c-0.9,1.5-2.2,2.8-3.8,3.6c-0.8,0.4-1.6,0.7-2.5,0.8c-0.4,0.1-0.9,0.1-1.3,0.1l-1,0l-1.9,0l-1,0c-0.4,0-0.9,0-1.3-0.1
			c-1.7-0.3-3.4-1.1-4.6-2.3c-1.3-1.2-2.2-2.8-2.5-4.5c-0.1-0.4-0.2-0.9-0.2-1.3l0-0.6l0-0.5l0-1.9l0-3.8l0-1.9
			c0-0.8,0.1-1.7,0.4-2.5c0.5-1.6,1.5-3.1,2.8-4.2c0.7-0.5,1.4-1,2.2-1.3c0.8-0.3,1.6-0.5,2.5-0.6c0.9-0.1,1.4,0,2.1,0l1.9,0l3.8,0
			l61.2,0.6l122.4,1.2V374.4z" />
			<path fill="#000000" class="st0" d="M214.8,373.9l122.4-1.2l61.2-0.6l3.8,0l1.9,0c0.7,0,1.2,0,2.1,0c0.8,0.1,1.7,0.3,2.5,0.6
			c0.8,0.3,1.5,0.8,2.2,1.3c1.3,1.1,2.3,2.6,2.8,4.2c0.3,0.8,0.3,1.7,0.4,2.5l0,1.9l0,3.8l0,1.9l0,0.5l0,0.6c0,0.4-0.1,0.9-0.2,1.3
			c-0.4,1.7-1.3,3.3-2.5,4.5c-1.3,1.2-2.9,2-4.6,2.3c-0.4,0.1-0.9,0.1-1.3,0.1l-1,0l-1.9,0l-1,0c-0.4,0-0.9,0-1.3-0.1
			c-0.9-0.1-1.7-0.4-2.5-0.8c-1.6-0.8-2.9-2-3.8-3.6c-0.9-1.5-1.3-3.4-1.2-5.1c0.1-1.8,0.8-3.5,1.9-4.9c0.6-0.7,1.2-1.3,2-1.8
			c0.7-0.5,1.6-0.9,2.4-1.2c0.9-0.3,1.8-0.4,2.6-0.4l1.9,0v5.3l-1.9,0c-0.4,0-0.8,0-1.1,0.1c-0.4,0.1-0.7,0.3-1,0.5
			c-0.3,0.2-0.6,0.5-0.8,0.8c-1,1.2-1.2,3-0.4,4.3c0.4,0.7,1,1.3,1.7,1.6c0.3,0.2,0.7,0.3,1.1,0.4c0.2,0,0.4,0,0.6,0.1l0.9,0l1.9,0
			l0.9,0c0.2,0,0.4,0,0.6,0c0.8-0.1,1.5-0.5,2.1-1c0.6-0.5,1-1.3,1.2-2.1c0-0.2,0.1-0.4,0.1-0.6l0-0.3l0-0.5l0-1.9l0-3.8l0-1.9
			c0-0.5,0-0.9-0.2-1.3c-0.4-1.6-1.9-2.9-3.6-3.1c-0.3,0-1.1,0-1.7,0l-1.9,0l-3.8,0l-61.2-0.6l-122.4-1.2V373.9z" />
		</g>
		<g>
			<path fill="#000000" class="st0" d="M614.6,161.4l-122.4,1.2l-61.2,0.6l-3.8,0l-1.9,0c-0.7,0-1.2,0-2.1,0c-0.8-0.1-1.7-0.3-2.5-0.6
			c-0.8-0.3-1.5-0.8-2.2-1.3c-1.3-1.1-2.3-2.6-2.8-4.2c-0.3-0.8-0.3-1.7-0.4-2.5l0-1.9l0-3.8l0-1.9l0-0.5l0-0.6
			c0-0.4,0.1-0.9,0.2-1.3c0.4-1.7,1.3-3.3,2.5-4.5c1.3-1.2,2.9-2,4.6-2.3c0.4-0.1,0.9-0.1,1.3-0.1l1,0l1.9,0l1,0
			c0.4,0,0.9,0,1.3,0.1c0.9,0.1,1.7,0.4,2.5,0.8c1.6,0.8,2.9,2,3.8,3.6c0.9,1.5,1.3,3.4,1.2,5.1c-0.1,1.8-0.8,3.5-1.9,4.9
			c-0.6,0.7-1.2,1.3-2,1.8c-0.7,0.5-1.6,0.9-2.4,1.2c-0.9,0.3-1.8,0.4-2.6,0.4l-1.9,0v-5.3l1.9,0c0.4,0,0.8,0,1.1-0.1
			c0.4-0.1,0.7-0.3,1-0.5c0.3-0.2,0.6-0.5,0.8-0.8c1-1.2,1.2-3,0.4-4.3c-0.4-0.7-1-1.3-1.7-1.6c-0.3-0.2-0.7-0.3-1.1-0.4
			c-0.2,0-0.4,0-0.6-0.1l-0.9,0l-1.9,0l-0.9,0c-0.2,0-0.4,0-0.6,0c-0.8,0.1-1.5,0.5-2.1,1c-0.6,0.5-1,1.3-1.2,2.1
			c0,0.2-0.1,0.4-0.1,0.6l0,0.3l0,0.5l0,1.9l0,3.8l0,1.9c0,0.5,0,0.9,0.2,1.3c0.4,1.6,1.9,2.9,3.6,3.1c0.3,0,1.1,0,1.7,0l1.9,0
			l3.8,0l61.2,0.6l122.4,1.2V161.4z" />
			<path fill="#000000" class="st0" d="M214.8,160.9l122.4-1.2l61.2-0.6l3.8,0l1.9,0c0.6,0,1.4,0,1.7,0c1.7-0.2,3.2-1.5,3.6-3.1
			c0.1-0.4,0.1-0.8,0.2-1.3l0-1.9l0-3.8l0-1.9l0-0.5l0-0.3c0-0.2-0.1-0.4-0.1-0.6c-0.2-0.8-0.6-1.5-1.2-2.1c-0.6-0.5-1.4-0.9-2.1-1
			c-0.2,0-0.4,0-0.6,0l-0.9,0l-1.9,0l-0.9,0c-0.2,0-0.4,0-0.6,0.1c-0.4,0.1-0.8,0.2-1.1,0.4c-0.7,0.3-1.3,0.9-1.7,1.6
			c-0.8,1.4-0.6,3.2,0.4,4.3c0.2,0.3,0.5,0.5,0.8,0.8c0.3,0.2,0.7,0.4,1,0.5c0.4,0.1,0.7,0.1,1.1,0.1l1.9,0v5.3l-1.9,0
			c-0.9,0-1.8-0.1-2.6-0.4c-0.9-0.3-1.7-0.7-2.4-1.2c-0.7-0.5-1.4-1.1-2-1.8c-1.1-1.4-1.8-3.1-1.9-4.9c-0.1-1.8,0.3-3.6,1.2-5.1
			c0.9-1.5,2.2-2.8,3.8-3.6c0.8-0.4,1.6-0.7,2.5-0.8c0.4-0.1,0.9-0.1,1.3-0.1l1,0l1.9,0l1,0c0.4,0,0.9,0,1.3,0.1
			c1.7,0.3,3.4,1.1,4.6,2.3c1.3,1.2,2.2,2.8,2.5,4.5c0.1,0.4,0.2,0.9,0.2,1.3l0,0.6l0,0.5l0,1.9l0,3.8l0,1.9c0,0.8-0.1,1.7-0.4,2.5
			c-0.5,1.6-1.5,3.1-2.8,4.2c-0.7,0.5-1.4,1-2.2,1.3c-0.8,0.3-1.6,0.5-2.5,0.6c-0.9,0.1-1.4,0-2.1,0l-1.9,0l-3.8,0l-61.2-0.6
			l-122.4-1.2V160.9z" />
		</g>
	</g>

</svg>